<svg width="512" height="512" viewBox="0 0 512 512" fill="none" xmlns="http://www.w3.org/2000/svg">
<path d="M362.042 397.421L370.619 406H0L49.9823 356.004L79.2793 326.71L99.9761 305.996L114.625 291.355L149.97 326.71L120.685 356.004H249.946L220.661 326.71L199.952 305.996L149.97 256H149.958L114.625 220.645L99.9878 206.004L79.2793 185.29L49.994 155.996L0.0116617 106H370.619L362.042 114.579L326.696 149.935L291.351 185.29L270.643 206.004L256.006 220.645L241.369 206.004L220.661 185.29L249.934 155.996H120.685L149.97 185.29L170.678 206.004L185.315 220.645L220.661 256L291.351 326.71L320.637 356.004L326.696 362.065L362.042 397.421Z" fill="#3B82F6"/>
<path d="M512 406H441.309L391.327 356.004L362.042 326.71L341.333 305.996L291.351 256L397.387 149.935L432.744 114.579L441.309 106H512L503.435 114.579L468.089 149.935L462.018 155.996L432.732 185.29L412.024 206.004L362.042 256L432.732 326.71L462.018 356.004L468.078 362.065L512 406Z" fill="#3B82F6"/>
</svg>
