<svg width="178" height="34" viewBox="0 0 178 34" fill="none" xmlns="http://www.w3.org/2000/svg">
<g clip-path="url(#clip0_12737_48750)">
<mask id="mask0_12737_48750" style="mask-type:luminance" maskUnits="userSpaceOnUse" x="0" y="0" width="178" height="34">
<path d="M178 0H0V34H178V0Z" fill="white"/>
</mask>
<g mask="url(#mask0_12737_48750)">
<path d="M59.5423 17.8156C59.5423 23.0665 55.9881 25.2358 52.3691 25.2358C48.7337 25.2358 45.1953 23.0665 45.1953 17.8156V8.3125H48.5884V17.4886C48.5884 20.6736 50.2526 21.8442 52.3691 21.8442C54.4856 21.8442 56.1498 20.6736 56.1498 17.4886V8.3125H59.5423V17.8156Z" fill="#0B23A9"/>
<path d="M66.2634 2.76562H62.7734V24.8021H66.2634V2.76562Z" fill="#0B23A9"/>
<path d="M76.856 11.167H72.8487V19.4307C72.8487 21.6342 74.2061 21.5999 76.856 21.4623V24.8021C71.5241 25.4909 69.3594 23.9414 69.3594 19.4307V2.76562H72.8487V7.58633H76.856V11.167Z" fill="#0B23A9"/>
<path d="M111.756 2.76562H108.266V24.8021H111.756V2.76562Z" fill="#0B23A9"/>
<path d="M139.294 11.167H135.287V19.4307C135.287 21.6342 136.644 21.5999 139.294 21.4623V24.8021C133.962 25.4909 131.797 23.9414 131.797 19.4307V2.76562H135.287V7.58633H139.294V11.167Z" fill="#0B23A9"/>
<path d="M141.866 9.49022H145.358V24.8011H141.866V9.49022ZM142.03 6.21917C141.157 5.25509 141.157 3.80884 142.03 2.87931C142.9 1.91523 144.324 1.91523 145.197 2.87931C146.067 3.80884 146.067 5.25509 145.162 6.21917C144.29 7.14871 142.934 7.14871 142.03 6.21917Z" fill="#0B23A9"/>
<path d="M126.279 7.59375H129.996L123.791 25.3606C121.899 30.6792 120.463 31.6961 115.876 31.6961L115.907 28.2185C118.104 28.3559 119.332 27.2199 120.204 24.8441L120.366 24.4996L113.516 7.59375H117.328L122.143 20.0923L126.279 7.59375Z" fill="#0B23A9"/>
<path d="M150.306 22.6353C148.691 20.8791 147.883 18.7445 147.883 16.1964C147.883 13.6141 148.691 11.4791 150.306 9.75777C151.954 8.00155 153.99 7.14062 156.414 7.14062C159.548 7.14062 162.327 8.86254 163.62 11.5825L160.614 13.4419C159.871 11.7893 158.32 10.7907 156.381 10.7907C154.959 10.7907 153.764 11.3071 152.794 12.3401C151.857 13.373 151.373 14.647 151.373 16.1964C151.373 17.7458 151.857 19.0198 152.794 20.053C153.764 21.0857 154.959 21.6024 156.381 21.6024C158.288 21.6024 159.904 20.5692 160.679 18.951L163.684 20.776C162.294 23.5306 159.548 25.2519 156.414 25.2519C153.99 25.2519 151.954 24.3913 150.306 22.6353Z" fill="#0B23A9"/>
<path d="M172.324 14.5779C174.813 15.1632 178.044 16.2653 177.979 19.9493C177.979 21.6021 177.365 22.9107 176.17 23.8402C174.974 24.7697 173.488 25.2519 171.678 25.2519C168.479 25.2519 166.12 23.7371 165.086 21.2234L168.091 19.3641C168.641 21.0168 169.836 21.8432 171.678 21.8432C173.52 21.8432 174.425 21.1888 174.425 19.9148C174.425 18.813 173.067 18.1589 171.355 17.7112C168.931 17.0571 165.668 16.0242 165.732 12.4086C165.732 10.8247 166.282 9.55092 167.413 8.58684C168.544 7.62276 169.965 7.14062 171.646 7.14062C174.328 7.14062 176.493 8.48344 177.624 10.7216L174.684 12.4775C174.134 11.1692 173.1 10.515 171.646 10.515C170.321 10.515 169.287 11.1349 169.287 12.3401C169.287 13.4761 170.644 14.0614 172.324 14.5779Z" fill="#0B23A9"/>
<path d="M97.0482 21.7056C98.5027 21.7056 99.7303 21.1888 100.7 20.1562C101.669 19.0887 102.154 17.7801 102.154 16.1965C102.154 14.6125 101.669 13.3039 100.7 12.271C99.7303 11.2038 98.5027 10.6873 97.0482 10.6873C95.5944 10.6873 94.3662 11.2038 93.3969 12.271C92.4277 13.3039 91.9431 14.6125 91.9431 16.1965C91.9431 17.7801 92.4277 19.0887 93.3969 20.1562C94.3662 21.1888 95.5944 21.7056 97.0482 21.7056ZM102.154 7.58858H105.644V24.8044H102.154V22.3251C100.829 24.2879 98.9551 25.252 96.4993 25.252C94.2697 25.252 92.3955 24.391 90.8119 22.6354C89.2283 20.8792 88.4531 18.7099 88.4531 16.1965C88.4531 13.6484 89.2283 11.5138 90.8119 9.75753C92.3955 8.00161 94.2697 7.14062 96.4993 7.14062C98.9551 7.14062 100.829 8.10501 102.154 10.0332V7.58858Z" fill="#0B23A9"/>
<path d="M82.8205 10.7119C83.6698 8.63318 85.3062 7.59375 87.6661 7.59375V11.5167C86.3765 11.4161 85.2436 11.7513 84.2681 12.5227C83.2925 13.2603 82.8205 14.5009 82.8205 16.2109V24.6607H79.4219V7.89556H82.8205V10.7119Z" fill="#0B23A9"/>
</g>
<path d="M19.9192 9.79542L19.915 14.2768C19.9296 20.3909 14.9249 25.381 8.81295 25.3747C6.3849 25.3705 4.17454 24.6337 2.38281 23.3443C5.59579 29.1047 11.7601 32.9958 18.7679 33C28.3127 33 36.0364 26.0968 37.2964 15.1036C37.466 13.628 37.6313 11.5767 37.5769 9.62169C37.443 4.82839 33.5665 0.987472 28.7334 1.00003C23.8773 0.993751 19.9045 4.93305 19.9192 9.79542Z" fill="url(#paint0_linear_12737_48750)"/>
<path d="M8.80376 23.0841C13.6659 23.0841 17.6075 19.1425 17.6075 14.2803C17.6075 9.41814 13.6659 5.47656 8.80376 5.47656C3.94158 5.47656 0 9.41814 0 14.2803C0 19.1425 3.94158 23.0841 8.80376 23.0841Z" fill="#0725CE"/>
</g>
<defs>
<linearGradient id="paint0_linear_12737_48750" x1="10.5837" y1="32.6672" x2="30.6884" y2="10.3271" gradientUnits="userSpaceOnUse">
<stop stop-color="#09DBF0"/>
<stop offset="1" stop-color="#0B23A9"/>
</linearGradient>
<clipPath id="clip0_12737_48750">
<rect width="178" height="34" fill="white"/>
</clipPath>
</defs>
</svg>
