<?xml version="1.0" encoding="UTF-8" standalone="no"?>
<svg
   width="898.19104"
   height="341.79901"
   viewBox="0 0 898.19104 341.79901"
   fill="none"
   version="1.1"
   id="svg13"
   sodipodi:docname="vluksmedia.svg"
   inkscape:version="1.4.3 (0d15f75, 2025-12-25)"
   xmlns:inkscape="http://www.inkscape.org/namespaces/inkscape"
   xmlns:sodipodi="http://sodipodi.sourceforge.net/DTD/sodipodi-0.dtd"
   xmlns="http://www.w3.org/2000/svg"
   xmlns:svg="http://www.w3.org/2000/svg">
  <sodipodi:namedview
     id="namedview13"
     pagecolor="#505050"
     bordercolor="#eeeeee"
     borderopacity="1"
     inkscape:showpageshadow="0"
     inkscape:pageopacity="0"
     inkscape:pagecheckerboard="0"
     inkscape:deskcolor="#505050"
     inkscape:zoom="1.28"
     inkscape:cx="250.78125"
     inkscape:cy="313.28125"
     inkscape:window-width="3840"
     inkscape:window-height="2133"
     inkscape:window-x="0"
     inkscape:window-y="27"
     inkscape:window-maximized="1"
     inkscape:current-layer="svg13" />
  <g
     clip-path="url(#clip0_3357_14858)"
     id="g6"
     transform="translate(-90.8984,-363.26)" />
  <g
     id="logotype">
    <path
       d="m 469.908,593.784 h -24.299 l -39.371,-104.21 h 23.963 l 28.29,80.701 29.553,-80.701 h 23.255 z"
       fill="#1e1d19"
       id="path1"
       transform="translate(-90.8984,-363.26)" />
    <path
       d="M 554.086,593.783 V 452.51 l 21.335,-0.185 v 141.273 z"
       fill="#1e1d19"
       id="path2"
       transform="translate(-90.8984,-363.26)" />
    <path
       d="m 665.966,593.782 c -13.556,0 -23.306,-3.061 -29.233,-9.199 -5.692,-5.751 -8.538,-15.084 -8.538,-27.999 v -67.063 h 21.336 v 64.389 c 0,6.475 0.977,11.082 2.93,13.79 2.677,4.019 7.813,6.02 15.374,6.02 h 22.515 v -84.199 h 21.335 v 104.244 h -45.753 z"
       fill="#1e1d19"
       id="path3"
       transform="translate(-90.8984,-363.26)" />
    <path
       d="m 964.348,593.783 h -63.586 l 14.297,-18.026 h 36.996 c 10.154,0 15.223,-4.238 15.223,-12.713 0,-8.476 -5.085,-12.327 -15.223,-12.327 h -22.716 c -11.232,0 -18.928,-1.395 -23.121,-4.187 -5.792,-4.002 -8.689,-12.057 -8.689,-24.165 0,-21.827 10.845,-32.758 32.551,-32.758 h 53.28 l -14.297,18.027 H 939.56 c -6.685,0 -11.383,0.673 -14.111,2.001 -3.587,1.733 -5.389,5.348 -5.389,10.813 0,7.483 4.699,11.217 14.112,11.217 h 24.501 c 19.904,0 30.042,9.501 30.412,28.486 0.118,9.754 -2.105,17.808 -6.685,24.131 -4.58,6.323 -10.592,9.501 -18.052,9.501"
       fill="#1e1d19"
       id="path4"
       transform="translate(-90.8984,-363.26)" />
    <path
       d="M 855.997,489.524 H 826.831 L 786.77,536.172 V 451.419 H 765.418 V 594.692 Z"
       fill="#1e1d19"
       id="path5"
       transform="translate(-90.8984,-363.26)" />
    <path
       d="m 803.441,567.466 23.39,27.225 h 29.166 l -37.973,-44.142 z"
       fill="#1e1d19"
       id="path6"
       transform="translate(-90.8984,-363.26)" />
    <path
       d="m 461.8676,340.97 0.726,-35.438 -11.234,35.438 h -8.217 l -11.626,-35.717 1.006,35.717 h -7.546 v -40.189 h 11.514 l 10.565,32.922 10.62,-32.922 h 11.402 v 40.189 z"
       fill="#1e1d19"
       id="path7" />
    <path
       d="m 539.3396,340.97 c -12.148,0 -18.222,-6.447 -18.222,-19.34 0,-6.67 1.305,-11.701 3.913,-15.092 2.981,-3.838 7.825,-5.757 14.533,-5.757 h 13.415 v 6.037 h -13.303 c -6.298,0 -9.67,3.596 -10.117,10.787 h 23.42 v 6.037 h -23.365 c 0,4.099 0.839,7.024 2.516,8.776 1.565,1.677 4.08,2.515 7.546,2.515 h 13.303 v 6.037 z"
       fill="#1e1d19"
       id="path8" />
    <path
       d="m 624.7916,340.97 h -17.999 v -40.189 h 17.775 c 6.335,0 10.993,1.733 13.974,5.198 2.981,3.428 4.471,8.664 4.471,15.707 0,12.856 -6.074,19.284 -18.221,19.284 z m -0.336,-34.152 h -10.34 v 28.115 h 10.34 c 3.838,0 6.447,-0.82 7.826,-2.459 1.714,-1.975 2.571,-5.832 2.571,-11.571 0,-5.105 -0.652,-8.645 -1.957,-10.62 -1.49,-2.31 -4.304,-3.465 -8.44,-3.465 z"
       fill="#1e1d19"
       id="path9" />
    <path
       d="m 695.1906,340.97 v -40.189 h 7.713 v 40.189 z"
       fill="#1e1d19"
       id="path10" />
    <path
       d="m 785.7176,340.97 -3.689,-9.894 h -18.278 l -3.465,9.894 h -7.714 l 16.433,-40.189 h 8.161 l 16.713,40.189 z m -12.912,-33.985 -6.763,17.943 h 13.694 z"
       fill="#1e1d19"
       id="path11" />
  </g>
  <path
     d="m 125.7426,248.302 -51.551,-45.492 41.793,-36.891 37.347,-32.967 c 5.224,-4.612 11.953,-7.156 18.921,-7.156 h 92.274 l -122.352,108.001 122.352,108.002 h -92.285 c -6.959,0 -13.683,-2.542 -18.905,-7.142 l -62.817,-55.336 z"
     fill="#0020f2"
     id="path12" />
  <path
     d="M 9.6786,145.9 C 3.5274,140.473 0.0035,132.665 0.0031,124.462 L 0,63.289 71.6446,0 v 200.571 z"
     fill="#0020f2"
     id="path13" />
  <defs
     id="defs13">
    <clipPath
       id="clip0_3357_14858">
      <rect
         width="582.86298"
         height="143.27299"
         fill="#ffffff"
         transform="translate(406.238,451.419)"
         id="rect13"
         x="0"
         y="0" />
    </clipPath>
  </defs>
</svg>
