<?xml version="1.0" encoding="UTF-8" standalone="no"?>
<svg
   viewBox="0 0 346.563 101.777"
   version="1.1"
   id="svg44"
   sodipodi:docname="km-logo-grey.svg"
   inkscape:version="1.4.3 (0d15f75, 2025-12-25)"
   xmlns:inkscape="http://www.inkscape.org/namespaces/inkscape"
   xmlns:sodipodi="http://sodipodi.sourceforge.net/DTD/sodipodi-0.dtd"
   xmlns="http://www.w3.org/2000/svg"
   xmlns:svg="http://www.w3.org/2000/svg"
   xmlns:rdf="http://www.w3.org/1999/02/22-rdf-syntax-ns#"
   xmlns:cc="http://creativecommons.org/ns#"
   xmlns:dc="http://purl.org/dc/elements/1.1/">
  <sodipodi:namedview
     id="namedview1"
     pagecolor="#505050"
     bordercolor="#eeeeee"
     borderopacity="1"
     inkscape:showpageshadow="0"
     inkscape:pageopacity="0"
     inkscape:pagecheckerboard="0"
     inkscape:deskcolor="#505050"
     showgrid="false"
     inkscape:zoom="8.8035944"
     inkscape:cx="173.28149"
     inkscape:cy="50.888305"
     inkscape:window-width="3840"
     inkscape:window-height="2133"
     inkscape:window-x="3840"
     inkscape:window-y="27"
     inkscape:window-maximized="1"
     inkscape:current-layer="svg44" />
  <metadata
     id="metadata48">
    <rdf:RDF>
      <cc:Work
         rdf:about="">
        <dc:format>image/svg+xml</dc:format>
        <dc:type
           rdf:resource="http://purl.org/dc/dcmitype/StillImage" />
        <dc:title>KM_Logo</dc:title>
      </cc:Work>
    </rdf:RDF>
  </metadata>
  <defs
     id="defs4">
    <style
       id="style2">.a{fill:#009777;}.b{fill:#3c3c3b;}.c{fill:#1a1a1a;}</style>
  </defs>
  <title
     id="title6">KM_Logo</title>
  <polygon
     class="a"
     points="36.685 25.472 14.915 25.472 0 51.107 14.909 76.609 36.679 76.609 21.77 51.107 36.685 25.472"
     id="polygon8" />
  <polygon
     class="b"
     points="69.34 25.472 47.57 25.472 32.655 51.107 47.564 76.609 69.334 76.609 54.425 51.107 69.34 25.472"
     id="polygon10"
     style="fill:#3d3d3c;fill-opacity:1" />
  <polygon
     class="b"
     points="29.623 101.777 17.421 80.906 71.765 80.906 84.288 101.777 29.623 101.777"
     id="polygon12"
     style="fill:#3d3d3c;fill-opacity:1" />
  <polygon
     class="a"
     points="29.623 0.437 17.499 21.175 71.845 21.175 84.288 0.437 29.623 0.437"
     id="polygon14" />
  <path
     class="a"
     d="M162.782,16.1q3.891,3.519,3.892,10.617V46.2h-7.348V42.155a9.056,9.056,0,0,1-4.078,3.331,15.946,15.946,0,0,1-6.383,1.153,15.654,15.654,0,0,1-6.538-1.277A10.1,10.1,0,0,1,138,41.813a9.007,9.007,0,0,1-1.525-5.137,8.806,8.806,0,0,1,3.331-7.193q3.332-2.709,10.492-2.708h8.594v-.5a6.812,6.812,0,0,0-2.087-5.354q-2.086-1.869-6.195-1.868a17.862,17.862,0,0,0-5.511.872,13.539,13.539,0,0,0-4.576,2.428l-3.052-5.667a18.892,18.892,0,0,1,6.289-3.05,27.978,27.978,0,0,1,7.784-1.059Q158.89,12.578,162.782,16.1Zm-7.1,23.538a7.3,7.3,0,0,0,3.207-3.83V31.943h-8.033q-6.725,0-6.725,4.422a3.965,3.965,0,0,0,1.681,3.361,7.7,7.7,0,0,0,4.671,1.245A10.058,10.058,0,0,0,155.684,39.634Z"
     id="path16" />
  <path
     class="a"
     d="M176.636,0h7.784V46.2h-7.784Z"
     id="path18" />
  <path
     class="a"
     d="M225.764,32.068h-26.09a9.045,9.045,0,0,0,3.581,5.822,11.734,11.734,0,0,0,7.191,2.147,12.118,12.118,0,0,0,9.029-3.61l4.172,4.794a14.048,14.048,0,0,1-5.666,4.047,22.444,22.444,0,0,1-17.373-.809,15.692,15.692,0,0,1-6.444-6.071,17.135,17.135,0,0,1-2.273-8.811,17.4,17.4,0,0,1,2.21-8.749,15.676,15.676,0,0,1,6.134-6.071,17.9,17.9,0,0,1,8.842-2.179,17.439,17.439,0,0,1,8.686,2.149,15.207,15.207,0,0,1,5.978,6.039,18.318,18.318,0,0,1,2.148,9Q225.889,30.573,225.764,32.068ZM202.756,21.015a9.3,9.3,0,0,0-3.144,5.884h18.867a9.18,9.18,0,0,0-3.051-5.853,9.284,9.284,0,0,0-6.351-2.242A9.4,9.4,0,0,0,202.756,21.015Z"
     id="path20" />
  <path
     class="a"
     d="M262.315,16.252q3.8,3.674,3.8,10.9V46.2H258.33V28.144q0-4.357-2.055-6.568a7.6,7.6,0,0,0-5.853-2.211,8.986,8.986,0,0,0-6.787,2.584q-2.492,2.586-2.491,7.441V46.2h-7.783V12.951h7.409v4.3a12.182,12.182,0,0,1,4.857-3.487,17.493,17.493,0,0,1,6.6-1.183Q258.516,12.578,262.315,16.252Z"
     id="path22" />
  <path
     class="b"
     d="M165.8,61.708a4.591,4.591,0,0,1,0-6.663,5,5,0,0,1,3.549-1.339,5.147,5.147,0,0,1,3.55,1.276,4.12,4.12,0,0,1,1.432,3.207,4.7,4.7,0,0,1-1.4,3.457,4.85,4.85,0,0,1-3.581,1.4A5,5,0,0,1,165.8,61.708Zm-.373,6.817h7.783v33.252h-7.783Z"
     id="path24"
     style="fill:#3d3d3c;fill-opacity:1" />
  <path
     class="b"
     d="M189.4,99.6a16.006,16.006,0,0,1-6.414-6.071,17.94,17.94,0,0,1,0-17.591,16.123,16.123,0,0,1,6.383-6.04,19.45,19.45,0,0,1,9.309-2.18,17.946,17.946,0,0,1,8.624,1.994,12.932,12.932,0,0,1,5.573,5.728L206.9,78.924a9.519,9.519,0,0,0-3.58-3.456,10.451,10.451,0,0,0-11.925,1.681,10.164,10.164,0,0,0-2.864,7.566,10.225,10.225,0,0,0,2.833,7.566,10.5,10.5,0,0,0,11.956,1.68,9.489,9.489,0,0,0,3.58-3.456l5.978,3.488a13.479,13.479,0,0,1-5.636,5.76,17.574,17.574,0,0,1-8.561,2.024A19.493,19.493,0,0,1,189.4,99.6Z"
     id="path26"
     style="fill:#3d3d3c;fill-opacity:1" />
  <path
     class="b"
     d="M248.244,71.826q3.8,3.674,3.8,10.9v19.054h-7.783V83.719q0-4.359-2.055-6.569a7.6,7.6,0,0,0-5.853-2.211,8.986,8.986,0,0,0-6.787,2.585q-2.492,2.584-2.491,7.44v16.813H219.29v-46.2h7.783V72.387a12.645,12.645,0,0,1,4.763-3.145,17.493,17.493,0,0,1,6.321-1.09Q244.445,68.152,248.244,71.826Z"
     id="path28"
     style="fill:#3d3d3c;fill-opacity:1" />
  <path
     class="b"
     d="M285.884,71.234q3.891,3.519,3.892,10.617V101.34h-7.348V97.293a9.056,9.056,0,0,1-4.078,3.331,15.946,15.946,0,0,1-6.383,1.153,15.651,15.651,0,0,1-6.538-1.277,10.1,10.1,0,0,1-4.328-3.549,9.01,9.01,0,0,1-1.525-5.137,8.8,8.8,0,0,1,3.331-7.193q3.33-2.709,10.492-2.708h8.594v-.5a6.812,6.812,0,0,0-2.087-5.354q-2.087-1.869-6.195-1.869a17.892,17.892,0,0,0-5.511.872,13.558,13.558,0,0,0-4.576,2.429l-3.052-5.667a18.892,18.892,0,0,1,6.289-3.05,27.973,27.973,0,0,1,7.784-1.06Q281.992,67.715,285.884,71.234Zm-7.1,23.537a7.29,7.29,0,0,0,3.207-3.829V87.08H273.96q-6.726,0-6.725,4.422a3.967,3.967,0,0,0,1.681,3.362,7.7,7.7,0,0,0,4.67,1.245A10.05,10.05,0,0,0,278.786,94.771Z"
     id="path30"
     style="fill:#3d3d3c;fill-opacity:1" />
  <path
     class="b"
     d="M331.183,87.206H305.092a9.044,9.044,0,0,0,3.581,5.821,11.731,11.731,0,0,0,7.192,2.148,12.118,12.118,0,0,0,9.028-3.611l4.172,4.794a14.04,14.04,0,0,1-5.666,4.048,22.444,22.444,0,0,1-17.373-.809,15.7,15.7,0,0,1-6.444-6.071,17.135,17.135,0,0,1-2.273-8.811,17.4,17.4,0,0,1,2.21-8.749,15.689,15.689,0,0,1,6.134-6.071,17.9,17.9,0,0,1,8.842-2.18,17.447,17.447,0,0,1,8.686,2.149,15.216,15.216,0,0,1,5.978,6.04,18.318,18.318,0,0,1,2.148,9Q331.307,85.711,331.183,87.206ZM308.175,76.153a9.3,9.3,0,0,0-3.145,5.884H323.9a9.175,9.175,0,0,0-3.051-5.853,9.282,9.282,0,0,0-6.351-2.242A9.39,9.39,0,0,0,308.175,76.153Z"
     id="path32"
     style="fill:#3d3d3c;fill-opacity:1" />
  <path
     class="b"
     d="M338.78,55.574h7.783v46.2H338.78Z"
     id="path34"
     style="fill:#3d3d3c;fill-opacity:1" />
  <rect
     class="a"
     x="99.861"
     width="7.783"
     height="20.738"
     id="rect36" />
  <polygon
     class="a"
     points="119.226 26.899 133.112 12.951 123.772 12.951 107.645 27.895 107.645 25.035 99.861 25.035 99.861 46.202 107.645 46.202 107.645 37.423 113.435 31.943 124.955 46.202 134.42 46.202 119.226 26.899"
     id="polygon38" />
  <path
     class="c"
     d="M151.792,71.794q-3.674-3.64-9.963-3.642a17.212,17.212,0,0,0-7.161,1.463,13.861,13.861,0,0,0-5.292,4.079,10.765,10.765,0,0,0-4.577-4.141,15.043,15.043,0,0,0-6.632-1.4,15.865,15.865,0,0,0-6.226,1.183,12.1,12.1,0,0,0-4.67,3.425V68.525h-7.41v8h11.2a8.508,8.508,0,0,1,5.242-1.588,6.962,6.962,0,0,1,5.542,2.211q1.931,2.211,1.931,6.569v18.058h7.783V84.9q0-4.794,2.367-7.378a8.112,8.112,0,0,1,6.288-2.585,6.967,6.967,0,0,1,5.543,2.211q1.929,2.211,1.929,6.569v18.058h7.784V82.723Q155.466,75.436,151.792,71.794Z"
     id="path40"
     style="fill:#3d3d3c;fill-opacity:1" />
  <rect
     class="c"
     x="99.861"
     y="80.824"
     width="7.783"
     height="20.953"
     id="rect42"
     style="fill:#3d3d3c;fill-opacity:1" />
</svg>
